<?xml version="1.0" encoding="UTF-8"?>
<svg xmlns="http://www.w3.org/2000/svg" xmlns:xlink="http://www.w3.org/1999/xlink" width="20pt" height="20pt" viewBox="0 0 20 20" version="1.1">
<g id="surface1">
<path style=" stroke:none;fill-rule:nonzero;fill:rgb(0%,0%,0%);fill-opacity:1;" d="M 10 0 C 4.476562 0 0 4.476562 0 10 C 0 14.417969 2.863281 18.167969 6.839844 19.488281 C 7.339844 19.578125 7.519531 19.269531 7.519531 19.007812 C 7.519531 18.769531 7.511719 17.980469 7.507812 17.144531 C 4.726562 17.75 4.140625 15.96875 4.140625 15.96875 C 3.683594 14.8125 3.027344 14.503906 3.027344 14.503906 C 2.121094 13.882812 3.097656 13.898438 3.097656 13.898438 C 4.101562 13.964844 4.628906 14.925781 4.628906 14.925781 C 5.523438 16.453125 6.972656 16.011719 7.539062 15.757812 C 7.632812 15.113281 7.890625 14.671875 8.175781 14.421875 C 5.957031 14.167969 3.621094 13.3125 3.621094 9.480469 C 3.621094 8.386719 4.011719 7.496094 4.648438 6.796875 C 4.546875 6.542969 4.203125 5.523438 4.746094 4.148438 C 4.746094 4.148438 5.585938 3.878906 7.496094 5.171875 C 8.292969 4.949219 9.148438 4.839844 10 4.835938 C 10.847656 4.839844 11.707031 4.953125 12.503906 5.175781 C 14.410156 3.878906 15.25 4.148438 15.25 4.148438 C 15.796875 5.527344 15.453125 6.542969 15.351562 6.796875 C 15.992188 7.496094 16.378906 8.386719 16.378906 9.480469 C 16.378906 13.320312 14.039062 14.167969 11.8125 14.414062 C 12.171875 14.722656 12.492188 15.332031 12.492188 16.265625 C 12.492188 17.601562 12.476562 18.679688 12.476562 19.007812 C 12.476562 19.273438 12.660156 19.585938 13.167969 19.488281 C 17.136719 18.164062 20 14.417969 20 10 C 20 4.476562 15.523438 0 10 0 Z M 10 0 "/>
</g>
</svg>
