<?xml version="1.0" encoding="UTF-8"?>
<svg xmlns="http://www.w3.org/2000/svg" xmlns:xlink="http://www.w3.org/1999/xlink" width="14pt" height="14pt" viewBox="0 0 14 14" version="1.1">
<g id="surface1">
<path style=" stroke:none;fill-rule:nonzero;fill:rgb(0%,0%,0%);fill-opacity:1;" d="M 7 0 C 3.132812 0 0 3.132812 0 7 C 0 10.09375 2.003906 12.714844 4.789062 13.640625 C 5.136719 13.707031 5.265625 13.488281 5.265625 13.304688 C 5.265625 13.136719 5.257812 12.585938 5.253906 12.003906 C 3.308594 12.425781 2.898438 11.175781 2.898438 11.175781 C 2.578125 10.367188 2.121094 10.152344 2.121094 10.152344 C 1.484375 9.71875 2.167969 9.726562 2.167969 9.726562 C 2.871094 9.777344 3.242188 10.449219 3.242188 10.449219 C 3.867188 11.519531 4.878906 11.210938 5.277344 11.03125 C 5.34375 10.578125 5.523438 10.269531 5.722656 10.09375 C 4.167969 9.917969 2.535156 9.316406 2.535156 6.636719 C 2.535156 5.871094 2.808594 5.246094 3.253906 4.757812 C 3.183594 4.578125 2.941406 3.867188 3.324219 2.902344 C 3.324219 2.902344 3.910156 2.714844 5.25 3.621094 C 5.804688 3.464844 6.40625 3.386719 7 3.386719 C 7.59375 3.386719 8.195312 3.464844 8.753906 3.621094 C 10.089844 2.714844 10.675781 2.902344 10.675781 2.902344 C 11.058594 3.867188 10.816406 4.578125 10.746094 4.757812 C 11.195312 5.246094 11.464844 5.871094 11.464844 6.636719 C 11.464844 9.324219 9.828125 9.917969 8.269531 10.089844 C 8.519531 10.308594 8.742188 10.734375 8.742188 11.386719 C 8.742188 12.320312 8.734375 13.074219 8.734375 13.304688 C 8.734375 13.492188 8.863281 13.710938 9.214844 13.640625 C 11.996094 12.714844 14 10.089844 14 7 C 14 3.132812 10.867188 0 7 0 Z M 7 0 "/>
</g>
</svg>
